<?xml version="1.0" standalone="no"?>
<!DOCTYPE svg PUBLIC "-//W3C//DTD SVG 20010904//EN"
 "http://www.w3.org/TR/2001/REC-SVG-20010904/DTD/svg10.dtd">
<svg version="1.0" xmlns="http://www.w3.org/2000/svg"
 width="612.000000pt" height="612.000000pt" viewBox="0 0 612.000000 612.000000"
 preserveAspectRatio="xMidYMid meet">
<metadata>
Created by potrace 1.11, written by Peter Selinger 2001-2013
</metadata>
<g transform="translate(0.000000,612.000000) scale(0.100000,-0.100000)"
fill="#000000" stroke="none">
<path d="M1367 6113 c-7 -12 1 -184 12 -250 5 -32 8 -59 7 -61 -2 -1 -19 5
-40 13 -20 8 -62 18 -93 22 -54 5 -56 5 -40 -11 59 -59 119 -223 102 -277 -7
-20 -8 -19 -25 9 -16 26 -113 102 -131 102 -3 0 7 -26 22 -57 29 -62 49 -143
51 -208 1 -49 8 -64 71 -143 l49 -63 146 3 c135 3 147 5 157 23 5 11 36 64 68
118 64 107 70 141 47 242 -6 27 -15 82 -20 122 -9 66 -66 240 -76 230 -5 -5
-9 -23 -18 -92 -10 -68 -26 -116 -37 -110 -5 4 -9 17 -9 30 0 36 -39 133 -77
193 -57 89 -154 185 -166 165z"/>
<path d="M4004 5341 c-2 -2 -4 -28 -4 -58 l0 -53 150 0 150 0 2 -1304 3 -1303
91 44 92 44 -3 52 c-2 29 -6 149 -10 267 -3 118 -8 253 -10 300 -2 47 -6 180
-10 295 -3 116 -8 260 -10 320 -2 61 -7 196 -10 300 -3 105 -8 233 -10 285 -2
52 -7 192 -10 310 -4 118 -8 254 -10 303 l-3 87 49 0 c47 0 49 -1 50 -27 1
-16 2 -44 4 -63 1 -19 5 -134 9 -255 4 -121 9 -247 11 -280 1 -33 6 -150 10
-260 3 -110 8 -234 10 -275 2 -41 7 -154 10 -250 11 -314 26 -694 28 -697 6
-5 188 88 184 94 -3 5 -8 55 -12 113 -4 58 -8 116 -10 130 -1 14 -6 75 -10
135 -3 61 -8 130 -11 155 -9 98 -14 169 -19 245 -3 44 -8 100 -10 125 -2 25
-7 88 -10 140 -4 52 -8 115 -10 140 -6 75 -15 184 -30 400 -3 41 -8 95 -10
120 -2 25 -7 88 -10 140 -4 52 -8 112 -10 133 l-4 37 39 0 c45 0 45 -1 55
-115 4 -44 8 -87 10 -95 2 -8 6 -49 9 -90 4 -41 8 -88 10 -105 2 -16 7 -59 11
-95 3 -36 8 -81 10 -100 2 -19 6 -61 9 -92 16 -165 24 -229 28 -233 2 -2 38
11 81 28 51 20 77 35 77 46 0 9 -9 75 -20 146 -10 72 -22 148 -25 170 -3 22
-10 72 -16 110 -6 39 -12 81 -14 95 -2 14 -13 90 -25 170 -12 80 -23 161 -26
180 -8 61 -15 90 -22 91 -27 3 -795 3 -798 0z"/>
<path d="M1282 5072 c-18 -3 -21 -8 -16 -30 24 -111 87 -209 177 -274 106 -78
293 -185 502 -288 183 -90 417 -190 444 -190 6 0 19 -4 29 -10 25 -14 156 -46
242 -60 75 -12 539 -10 587 3 216 56 338 99 522 182 97 45 309 151 377 191
l32 18 0 228 c0 125 -3 228 -7 229 -20 2 -2870 3 -2889 1z"/>
<path d="M2741 4097 c-16 -20 -18 -132 -2 -151 11 -13 40 -15 195 -14 99 0
189 5 199 10 14 7 17 22 17 76 0 40 -5 73 -12 80 -18 18 -382 17 -397 -1z"/>
<path d="M2678 3813 c-34 -40 -3 -83 59 -83 l45 0 -7 -207 c-3 -115 -8 -257
-10 -318 -2 -60 -6 -198 -10 -305 -3 -107 -8 -247 -10 -310 -2 -63 -7 -216
-11 -340 -3 -124 -7 -252 -9 -285 -2 -33 -6 -177 -11 -320 -4 -143 -8 -285 -9
-315 -2 -30 -3 -103 -4 -162 l-1 -108 -32 -14 c-190 -82 -607 -264 -656 -287
-35 -16 -68 -29 -73 -29 -5 0 -9 -25 -9 -55 0 -50 2 -55 23 -56 27 -1 1955 -1
1980 0 14 1 17 10 17 54 l0 52 -53 22 c-60 25 -370 160 -437 190 -25 12 -94
42 -155 68 -60 26 -113 50 -117 54 -3 3 -9 101 -13 216 -3 116 -8 262 -10 325
-5 131 -13 378 -20 620 -3 91 -7 228 -10 305 -3 77 -7 223 -10 325 -3 102 -7
235 -10 295 -2 61 -7 211 -10 335 -4 124 -8 230 -8 235 -1 6 20 12 48 15 40 4
52 10 62 30 10 20 10 29 -1 45 -13 19 -26 20 -263 23 -228 2 -251 1 -265 -15z"/>
<path d="M1489 423 c0 -67 0 -329 0 -380 l1 -43 1450 0 1450 0 0 235 0 235
-1450 0 -1450 0 -1 -47z"/>
</g>
</svg>
